<svg width="21" height="26" viewBox="0 0 21 26" fill="none" xmlns="http://www.w3.org/2000/svg">
<path d="M17.2788 10.4506L17.2787 10.4465C17.2788 9.69761 17.8613 9.06012 18.6238 9.06012C19.3902 9.06012 19.9688 9.71304 19.9688 10.4465V16.6627C19.9688 17.491 19.67 18.9503 19.3126 20.4101C18.9497 21.8923 18.5084 23.4439 18.1925 24.493L18.0854 24.8488H17.7138H7.79021H7.47244L7.33752 24.5611L7.31592 24.5151C6.9385 23.7102 6.28589 22.3185 5.96814 21.7559L5.9673 21.7544C5.48581 20.8949 4.84481 19.8791 4.15884 18.7921C4.13074 18.7475 4.10256 18.7029 4.07432 18.6581C4.07419 18.6579 4.07406 18.6577 4.07393 18.6575L4.4968 18.3907C3.54345 16.8871 2.47092 15.1928 1.4959 13.4088L17.2788 10.4506ZM17.2788 10.4506L17.3004 13.0946C17.3004 13.0951 17.3004 13.0957 17.3004 13.0962C17.2996 13.3408 17.1174 13.5035 16.9229 13.5035C16.7279 13.5035 16.5454 13.3401 16.5454 13.0946V8.95421C16.5454 8.22071 15.9668 7.56778 15.2004 7.56778C14.4379 7.56778 13.8554 8.20528 13.8554 8.95421V11.9052C13.8554 12.1507 13.6728 12.3141 13.4778 12.3141C13.2829 12.3141 13.1003 12.1507 13.1003 11.9052V7.76483C13.1003 7.03133 12.5218 6.3784 11.7553 6.3784C10.9928 6.3784 10.4103 7.0159 10.4103 7.76483V10.7271C10.4103 10.9725 10.2277 11.1359 10.0328 11.1359C9.83779 11.1359 9.65524 10.9725 9.65524 10.7271V2.22187C9.65524 1.48837 9.07668 0.835449 8.31022 0.835449C7.54777 0.835449 6.9652 1.47294 6.9652 2.22187V15.3836C6.9652 15.5619 6.86219 15.708 6.71657 15.7676C6.5638 15.819 6.39713 15.772 6.29738 15.6549C6.29727 15.6548 6.29715 15.6547 6.29703 15.6545L2.90671 11.6495L2.89615 11.637L2.88479 11.6252C2.63693 11.3685 2.28953 11.2257 1.94008 11.2257C1.58329 11.2257 1.23476 11.3661 0.984528 11.6252C0.655393 11.9661 0.644035 12.4078 0.704847 12.7389C0.766267 13.0733 0.916596 13.3995 1.05881 13.6516L17.2788 10.4506Z" fill="white" stroke="#141923"/>
</svg>
